HIERARCHY
ROOT Hips
{
	OFFSET -3.958830 18.904000 13.208200
	CHANNELS 6 Xposition Yposition Zposition Zrotation Yrotation Xrotation 
	JOINT LHipJoint
	{
		OFFSET 0.000000 0.000000 0.000000
		CHANNELS 3 Zrotation Yrotation Xrotation
		JOINT LeftUpLeg
		{
			OFFSET 1.800000 -1.400000 0.085000
			CHANNELS 3 Zrotation Yrotation Xrotation
			JOINT LeftLeg
			{
				OFFSET 2.215000 -6.000000 0.000000
				CHANNELS 3 Zrotation Yrotation Xrotation
				JOINT LeftFoot
				{
					OFFSET 2.500000 -6.900000 0.000000
					CHANNELS 3 Zrotation Yrotation Xrotation
					JOINT LeftToeBase
					{
						OFFSET 0.200000 -0.500000 1.950000
						CHANNELS 3 Zrotation Yrotation Xrotation
						End Site
						{
							OFFSET 0.000000 0.000000 0.000000
						}
					}
				}
			}
		}
	}
	JOINT RHipJoint
	{
		OFFSET 0.000000 0.000000 0.000000
		CHANNELS 3 Zrotation Yrotation Xrotation
		JOINT RightUpLeg
		{
			OFFSET -1.800000 -1.400000 0.085000
			CHANNELS 3 Zrotation Yrotation Xrotation
			JOINT RightLeg
			{
				OFFSET -2.215000 -6.000000 0.000000
				CHANNELS 3 Zrotation Yrotation Xrotation
				JOINT RightFoot
				{
					OFFSET -2.500000 -6.900000 0.000000
					CHANNELS 3 Zrotation Yrotation Xrotation
					JOINT RightToeBase
					{
						OFFSET -0.200000 -0.500000 1.950000
						CHANNELS 3 Zrotation Yrotation Xrotation
						End Site
						{
							OFFSET 0.000000 0.000000 0.000000
						}
					}
				}
			}
		}
	}
	JOINT LowerBack
	{
		OFFSET 0.000000 0.000000 0.000000
		CHANNELS 3 Zrotation Yrotation Xrotation
		JOINT Spine
		{
			OFFSET -0.087000 1.940000 -0.288900
			CHANNELS 3 Zrotation Yrotation Xrotation
			JOINT Spine1
			{
				OFFSET 0.000000 1.950000 0.060000
				CHANNELS 3 Zrotation Yrotation Xrotation
				JOINT Neck
				{
					OFFSET 0.000000 0.000000 0.000000
					CHANNELS 3 Zrotation Yrotation Xrotation
					JOINT Neck1
					{
						OFFSET 0.000000 1.600000 0.340000
						CHANNELS 3 Zrotation Yrotation Xrotation
						JOINT Head
						{
							OFFSET 0.000000 1.667000 -0.240000
							CHANNELS 3 Zrotation Yrotation Xrotation
							End Site
							{
								OFFSET 0.000000 0.000000 0.000000
							}
						}
					}
				}
				JOINT LeftShoulder
				{
					OFFSET 0.000000 0.000000 0.000000
					CHANNELS 3 Zrotation Yrotation Xrotation
					JOINT LeftArm
					{
						OFFSET 2.700000 1.550000 -0.730000
						CHANNELS 3 Zrotation Yrotation Xrotation
						JOINT LeftForeArm
						{
							OFFSET 5.450000 0.000000 0.000000
							CHANNELS 3 Zrotation Yrotation Xrotation
							JOINT LeftHand
							{
								OFFSET 3.450000 0.000000 0.000000
								CHANNELS 3 Zrotation Yrotation Xrotation
								JOINT LeftHandIndex1
								{
									OFFSET 0.750000 0.000000 0.000000
									CHANNELS 3 Zrotation Yrotation Xrotation
									End Site
									{
										OFFSET 0.000000 0.000000 0.000000
									}
								}
							}
						}
					}
				}
				JOINT RightShoulder
				{
					OFFSET 0.000000 0.000000 0.000000
					CHANNELS 3 Zrotation Yrotation Xrotation
					JOINT RightArm
					{
						OFFSET -2.700000 1.550000 -0.730000
						CHANNELS 3 Zrotation Yrotation Xrotation
						JOINT RightForeArm
						{
							OFFSET -5.450000 0.000000 0.000000
							CHANNELS 3 Zrotation Yrotation Xrotation
							JOINT RightHand
							{
								OFFSET -3.450000 0.000000 0.000000
								CHANNELS 3 Zrotation Yrotation Xrotation
								JOINT RightHandIndex1
								{
									OFFSET -0.750000 0.000000 0.000000
									CHANNELS 3 Zrotation Yrotation Xrotation
									End Site
									{
										OFFSET 0.000000 0.000000 0.000000
									}
								}
							}
						}
					}
				}
			}
		}
	}
}
MOTION
Frames: 7
Frame Time: 0.016667
-1.907050 18.154310 -11.439100 -34.923552 44.698068 -32.474865 -15.625973 12.159387 1.456184 25.223522 -1.257415 -16.446452 -1.201741 8.322880 27.143021 -0.474870 6.306480 2.275312 0.909830 0.900840 0.282920 18.487825 -7.300446 6.075632 -30.080261 4.983824 -61.514554 18.056699 -20.743430 53.106929 -1.381828 -10.415790 0.708958 0.779620 0.493850 0.145030 -4.294411 -2.607331 -9.061465 19.747823 -9.332572 30.658697 -1.422590 -6.186448 20.603734 1.699352 2.352054 -5.564625 1.160760 -6.868956 31.854778 10.931030 -11.707100 -15.337880 10.415354 -35.296321 -2.867212 5.773813 -49.216981 -11.576556 75.221447 -32.827723 -29.332523 -4.056522 2.863920 0.130650 0.179930 -0.131200 0.474410 -12.668646 31.255655 3.151264 -16.091035 26.876316 -15.698112 -75.157008 40.525133 -33.340418 1.856186 -1.700188 -0.115850 0.509150 -0.230170 0.141830 
-1.903990 18.179430 -11.420680 -35.768167 45.385873 -33.068384 -15.626387 12.034261 1.356369 25.254963 -0.892871 -16.431303 -0.976649 8.170140 26.262553 -0.375774 6.070950 2.354603 0.857840 0.813160 0.273910 18.512186 -7.162877 6.311508 -31.620775 5.481794 -61.587647 23.649222 -25.087455 54.803524 -1.751699 -11.473210 0.453217 0.647090 0.400860 0.164180 -4.475155 -2.415778 -9.254375 21.263983 -9.125803 30.762478 -1.701134 -5.572573 19.560538 1.538303 2.623523 -6.693586 1.036790 -7.475568 34.630601 12.303660 -12.208030 -15.383390 7.660834 -37.063690 -1.558013 1.726861 -49.195073 -9.503002 79.081309 -37.091710 -33.830685 -3.933234 2.760902 0.197270 0.103620 -0.060480 0.465220 -9.865469 32.451164 4.217719 -12.909867 25.922280 -15.144234 -80.433840 45.020393 -39.209479 1.849142 -1.483102 -0.066790 0.403970 -0.256490 0.132590 
-1.891900 18.212280 -11.368360 -36.762919 46.996719 -33.358713 -15.638791 11.822860 1.248923 24.841564 -0.524462 -16.994434 -1.068595 8.208733 25.764342 -0.266630 5.887061 2.435827 0.709150 0.607200 0.212530 18.536722 -7.010900 6.585531 -32.457471 6.124288 -62.669875 27.457933 -31.646972 60.729308 -2.297821 -13.168764 0.090917 0.444610 0.355910 0.137210 -4.786137 -2.070055 -9.544173 22.981253 -8.759086 30.285650 -2.763639 -4.553447 17.673282 1.372877 3.066211 -8.246776 0.791360 -8.451089 39.496855 16.672070 -14.310880 -15.670930 4.274362 -37.589180 0.438950 -11.508765 -50.265208 -1.709520 87.472156 -44.690178 -45.777605 -3.744208 2.377282 0.294140 0.018430 -0.017580 0.424720 -6.464121 32.188347 5.612764 -6.025847 26.359177 -12.260164 -94.181926 51.962956 -55.898331 1.805023 -0.876738 -0.069350 0.353720 -0.230360 0.122970 
-1.889070 18.256160 -11.316660 -37.671135 48.379600 -33.507786 -15.672524 11.757797 1.219975 24.479364 -0.133876 -17.848154 -0.735175 8.049553 25.048477 -0.287972 5.720828 2.481237 0.606850 0.419620 0.223390 18.496854 -6.878404 6.789855 -31.957177 7.847487 -63.109888 31.090373 -38.109587 65.824038 -2.801296 -14.679065 -0.229379 0.313610 0.299880 0.120000 -4.861281 -2.010504 -9.787140 23.366276 -8.019558 30.005643 -2.741765 -3.445593 16.891025 1.632518 3.197435 -10.464711 0.586603 -8.817040 43.572707 18.489630 -15.388280 -15.322190 1.688063 -36.549014 3.840866 -23.734450 -49.916461 4.246368 96.082481 -52.102419 -62.080867 -3.637706 2.019204 0.400080 -0.037890 -0.002910 0.347910 -4.575463 31.518300 6.496080 1.060830 26.643818 -9.137546 -103.228732 59.158868 -74.123053 1.835718 -0.122883 -0.111120 0.310220 -0.183880 0.056770 
-1.887720 18.295340 -11.253660 -36.754959 50.073569 -32.624144 -15.734049 11.785085 1.135176 23.154113 0.187118 -17.584173 -0.970700 7.889763 23.898741 -0.261746 5.446831 2.575560 0.571160 0.352640 0.260980 18.408519 -6.758214 7.017479 -31.710616 9.766993 -63.665960 33.291815 -44.501845 71.923889 -3.331699 -16.178324 -0.518243 0.232530 0.230140 0.116800 -4.822642 -2.044011 -9.947041 21.794334 -6.375074 30.542430 -2.220851 -1.905006 16.659621 1.666041 3.513579 -12.611945 1.143978 -9.586544 46.473221 20.845260 -16.082810 -16.526410 -0.947058 -33.924351 7.285945 -34.097355 -49.341419 9.184505 106.849714 -60.747950 -86.068300 -3.619335 1.778822 0.474990 -0.104780 0.058740 0.304280 -2.157767 29.832482 7.480185 8.665887 26.992832 -5.868915 -117.162749 65.360301 -107.000485 2.316490 -0.740350 -0.100370 0.274730 -0.189610 0.030550 
-1.903350 18.305510 -11.199190 -36.604856 51.645093 -32.355217 -15.767155 11.659230 1.158795 22.866485 0.353132 -18.077033 -1.854082 8.175548 23.718075 -0.364646 5.590808 2.506566 0.446150 0.134030 0.231820 18.360081 -6.688271 7.074940 -29.569431 12.325200 -64.384451 31.542449 -50.195942 80.788149 -3.839335 -17.976219 -0.861533 0.133230 0.259860 0.129170 -4.931791 -1.805484 -10.094918 21.592834 -5.660705 31.368706 -3.185550 -0.831238 14.636638 1.819876 3.323688 -13.192918 1.131870 -9.550440 48.459231 22.821970 -16.488410 -17.236700 -4.841387 -32.698057 9.329499 -42.077449 -44.922020 10.402807 125.763235 -71.036667 -125.715580 -3.572262 2.806144 0.606180 -0.109160 0.040840 0.219590 1.373886 29.541252 6.548913 17.957389 24.881589 -10.963072 -172.391792 75.760521 177.177562 1.834986 -1.659286 -0.198390 0.292910 -0.070140 -0.039440 
-1.923170 18.297950 -11.163520 -37.456464 53.312045 -33.137617 -15.810645 11.627346 1.174060 22.691288 0.632250 -19.279306 -1.422471 8.250333 24.657741 -0.326422 5.619102 2.465820 0.455830 0.137000 0.262790 18.288261 -6.677985 7.025780 -26.323672 15.288447 -64.536733 28.368970 -54.835221 89.805190 -4.381257 -19.772658 -1.160573 0.105400 0.215090 0.161260 -5.043518 -1.560271 -10.194127 21.781574 -5.603282 32.180994 -4.052337 -0.418338 12.763672 2.274412 3.081086 -13.265304 1.070242 -9.833330 49.530677 22.401610 -16.420790 -17.596990 -8.441439 -30.751708 9.638655 -49.390128 -37.806089 3.726435 -167.645447 -78.479522 151.703503 -3.277250 2.869154 0.627480 -0.135550 0.088140 0.201130 4.046487 28.469432 6.510041 26.458467 23.360992 -13.699452 136.491689 73.220466 109.613943 2.207104 -0.306947 -0.158280 0.253240 -0.081130 -0.040050 
